<?xml version="1.0" encoding="UTF-8"?>
<svg width="171px" height="125px" viewBox="0 0 171 125" version="1.1" xmlns="http://www.w3.org/2000/svg" xmlns:xlink="http://www.w3.org/1999/xlink">
    <!-- Generator: Sketch 49.3 (51167) - http://www.bohemiancoding.com/sketch -->
    <title>charts</title>
    <desc>Created with Sketch.</desc>
    <defs></defs>
    <g id="Page-1" stroke="none" stroke-width="1" fill="none" fill-rule="evenodd">
        <g id="charts">
            <g id="svgid2">
                <polygon id="MTBteHk3NDUxMDAwMDAwMDAwMHh6czE1Mw" fill="#EF6565" points="68 58 85 58 85 76 68 76"></polygon>
                <polygon id="Shape" fill="#67DDE0" points="50 23 67 23 67 76 50 76"></polygon>
                <polygon id="Shape" fill="#FFD878" points="30 9 51 9 51 76 30 76"></polygon>
                <polygon id="Shape" fill="#E88C77" points="12 33 29 33 29 75 12 75"></polygon>
                <path d="M87.037037,73.5 L87.037037,56 L69.6296296,56 L69.6296296,21 L52.2222222,21 L52.2222222,7 L27.8518519,7 L27.8518519,31.5 L10.4444444,31.5 L10.4444444,73.5 L3.48148148,73.5 L3.48148148,0 L0,0 L0,77 L94,77 L94,73.5 L87.037037,73.5 Z M13.9259259,35 L27.8518519,35 L27.8518519,73.5 L13.9259259,73.5 L13.9259259,35 Z M48.7407407,73.5 L31.3333333,73.5 L31.3333333,10.5 L48.7407407,10.5 L48.7407407,73.5 Z M66.1481481,73.5 L52.2222222,73.5 L52.2222222,24.5 L66.1481481,24.5 L66.1481481,73.5 Z M83.5555556,73.5 L69.6296296,73.5 L69.6296296,59.5 L83.5555556,59.5 L83.5555556,73.5 Z" id="Shape" fill="#4D5152"></path>
            </g>
            <g id="svgid5" transform="translate(97.000000, 0.000000)" fill-rule="nonzero">
                <path d="M61.223565,50 L41,35 L68,35 C68,41.0024625 65.3716012,46.3677406 61.223565,50" id="Shape" fill="#67DDE0"></path>
                <path d="M41.5670529,4 C48.4272112,4 54.7862797,6.15225189 60,9.83499402 L40.7110244,34 L34,4.89677162 C36.4249168,4.32283778 38.9601927,4 41.5700356,4" id="Shape" fill="#FFE4A9"></path>
                <path d="M9.03261597,20.4251001 C13.2133907,10.6404259 21.8803443,3.80496906 32.2937351,2.03603932 C32.3233859,2.03603932 32.3975132,2.03603932 32.4330942,2 C32.4627451,2.03603932 32.4627451,2 32.4983262,2 L40,35 L39.9644189,35 L9,20.4941755 C9,20.4641427 9,20.4641427 9.02965088,20.4251001" id="Shape" fill="#ACF0F2"></path>
                <path d="M60.1152553,11 C66.7660392,16.8006398 71,25.2606499 71,34.7082562 L40.9012098,34.7082562 L60.1152553,11 Z M2,32.3880002 C2,46.041814 9.73865572,57.9286636 21.1206272,64 L40.9012098,34.7082562 L4.94418483,18.3177303 C3.02760187,22.6250772 2,27.3964753 2,32.3880002 Z" id="MTBteHk1MTAxMDAwMDAwMDAwMHh6czg1Mw" fill="#EF6565"></path>
                <path d="M60.1509812,11 C66.7799359,16.8720201 71,25.4361355 71,35 L41,35 L60.1509812,11 Z" id="Shape" fill="#FFFFFF" opacity="0.2"></path>
                <path d="M38.4882337,77 C30.5528807,77 23.1739248,74.6367521 17,70.5324786 L40.5501758,35 L72,58.0192308 C65.1119827,69.3807692 52.6659454,77 38.4912091,77" id="Shape" fill="#FFD878"></path>
                <path d="M63.4586895,49.147806 C67.042735,45.9053118 69.2714693,41.1916859 69.2714693,35.9676674 L72.1326821,35.9676674 C72.2230362,34.9769053 72.2832723,33.9861432 72.2832723,32.965358 C72.2832723,23.9584296 68.2775743,15.852194 61.952788,10.3279446 C61.1998372,9.69745958 60.4167684,9.0669746 59.5734636,8.4965358 C54.6642247,4.98383372 48.6406186,2.94226328 42.1652422,2.94226328 C39.7256817,2.94226328 37.3764754,3.24249423 35.1176231,3.78290993 L34.2442002,0 C33.1900692,0.0600461894 32.1961742,0.180138568 31.2022792,0.360277136 C20.992267,2.04157044 12.5291005,8.82678984 8.52340252,18.0138568 L4.21652422,16.0623557 C3.76475376,16.9330254 3.31298331,17.8337182 2.92144892,18.7644342 C1.02401302,23.1177829 0,27.9214781 0,32.965358 C0,46.595843 7.58974359,58.4549654 18.7635328,64.5496536 L15.2096052,69.8337182 C15.992674,70.4642032 16.8058608,71.034642 17.6491656,71.5750577 C23.8233618,75.6281755 31.2022792,78 39.1534392,78 C53.2486772,78 65.6271876,70.5542725 72.4940985,59.4157044 C73.036223,58.5450346 73.5482295,57.6743649 74,56.7736721 L63.4586895,49.147806 Z M60.989011,47.3764434 L45.2673993,35.9676674 L66.2596663,35.9676674 C66.2596663,40.5311778 64.2116402,44.6143187 60.989011,47.3764434 Z M60.0553521,12.6997691 C65.6874237,17.6535797 69.2714693,24.8891455 69.2714693,32.965358 L43.7916158,32.965358 L60.0553521,12.6997691 Z M42.1652422,5.94457275 C47.9479039,5.94457275 53.3089133,7.74595843 57.7061457,10.8383372 L41.4424094,31.1039261 L35.7802198,6.69515012 C37.8282458,6.2147806 39.966626,5.94457275 42.1652422,5.94457275 Z M11.2942613,19.2147806 C14.968661,10.7482679 22.5885226,4.83371824 31.7444037,3.30254042 C31.7745218,3.30254042 31.8347578,3.30254042 31.8648759,3.27251732 C31.8949939,3.30254042 31.8949939,3.27251732 31.9251119,3.27251732 L38.5209605,31.8244804 L38.4908425,31.8244804 L11.2641433,19.2748268 C11.2641433,19.2448037 11.2641433,19.2448037 11.2942613,19.2147806 Z M3.01180301,32.965358 C3.01180301,28.3718245 3.94546195,23.9884527 5.69230769,20.0254042 L38.4306064,35.0969977 L20.4200244,62.0277136 C10.0594221,56.443418 3.01180301,45.5150115 3.01180301,32.965358 Z M39.1534392,74.9976905 C31.8347578,74.9976905 25.028083,72.8360277 19.3357753,69.0831409 L41.0508751,36.5981524 L70.0545381,57.6443418 C63.6996337,68.0323326 52.2246642,74.9976905 39.1534392,74.9976905 Z" id="Shape" fill="#4D5152"></path>
            </g>
            <g id="svgid19" transform="translate(51.000000, 39.000000)" fill-rule="nonzero">
                <path d="M70.1670475,81.9907609 C69.7591986,81.9907609 69.3576242,81.8367766 69.0564434,81.5411267 L57.5739265,70.2694726 C57.213137,69.9153086 57.0499974,69.4071603 57.1347045,68.9144104 C57.2225489,68.4216605 57.5519654,68.002823 58.0131485,67.7903247 C62.7661575,65.5852688 66.9701391,62.4008726 70.1733221,58.560503 C70.4556791,58.2278968 70.8635281,58.0215578 71.3090246,58 L71.3905944,58 C71.804718,58 72.2062923,58.1601437 72.5011985,58.4465546 L82.5405576,68.3015527 C82.9891915,68.7419479 83.1240953,69.4040806 82.879386,69.979982 C82.6346766,70.5558835 82.063688,70.934685 81.4299535,70.934685 L71.7356974,70.934685 L71.7356974,80.4509175 C71.7356974,81.0730142 71.3529468,81.6365969 70.7631345,81.8737328 C70.5748965,81.950725 70.3678347,81.9907609 70.1670475,81.9907609 Z M17.9435566,81.538047 L29.4260735,70.2663929 C29.786863,69.9122289 29.9500026,69.4040806 29.8652955,68.9113307 C29.7711765,68.4185808 29.4480346,67.9997434 28.9868515,67.787245 C24.2307052,65.5914282 20.0267236,62.3977929 16.8235406,58.5635827 C16.5411836,58.2309765 16.1333346,58.0246375 15.6878381,58.0030797 L15.6094056,58.0030797 C15.195282,58.0030797 14.7937077,58.1693828 14.4988015,58.4557937 L4.45944241,68.3107917 C4.01080855,68.751187 3.87590466,69.4133196 4.12061404,69.9892211 C4.36218612,70.5682022 4.93631196,70.943924 5.5700465,70.943924 L15.2643026,70.943924 L15.2643026,80.4601566 C15.2643026,81.0822533 15.6470532,81.645836 16.2368655,81.8829719 C16.4251035,81.9599641 16.6321653,82 16.8329525,82 C17.2408014,82 17.6423758,81.8460157 17.9435566,81.547286 L17.9435566,81.538047 Z" id="MTBteHk4MzkxMDAwMDAwMDAwMHh6czE3Mg" fill="#EF6565"></path>
                <path d="M43.5,71 C24.4779545,71 9,55.5220455 9,36.5 C9,17.4779545 24.4779545,2 43.5,2 C62.5220455,2 78,17.4779545 78,36.5 C78,55.5220455 62.5220455,71 43.5,71 Z" id="Shape" fill="#FFE4A9"></path>
                <path d="M44,58 C31.8685714,58 22,48.1314286 22,36 C22,23.8685714 31.8685714,14 44,14 C56.1314286,14 66,23.8685714 66,36 C66,48.1314286 56.1314286,58 44,58 Z" id="Shape" fill="#FFD878"></path>
                <path d="M86.5559608,69.8021253 L73.4341441,56.6925614 C77.4400834,50.8941004 79.7742527,43.8351044 79.7742527,36.2403811 C79.7742527,16.2293881 63.529696,0 43.5,0 C23.470304,0 7.22574735,16.2293881 7.22574735,36.2403811 C7.22574735,43.8351044 9.55991665,50.8941004 13.5658559,56.6925614 L0.444039244,69.8021253 C0.00243964647,70.2433126 -0.123731667,70.9050934 0.12861096,71.5038476 C0.349410759,72.1026017 0.91718167,72.4807622 1.57958107,72.4807622 L13.534313,72.4807622 L13.534313,84.4243313 C13.534313,85.0861121 13.912827,85.6533529 14.5121407,85.8739465 L15.1114544,86 C15.5215112,86 15.931568,85.8424331 16.2154534,85.5588128 L31.3875539,70.4008794 C35.2042361,71.7244412 39.2417182,72.4807622 43.5,72.4807622 C47.7582818,72.4807622 51.7957639,71.7244412 55.6124461,70.4008794 L70.7845466,85.5588128 C71.068432,85.8424331 71.4784888,86 71.8885456,86 L72.4878593,85.8739465 C73.087173,85.6533529 73.465687,85.0861121 73.465687,84.4243313 L73.465687,72.4807622 L85.4204189,72.4807622 C86.0828183,72.4807622 86.6505892,72.1026017 86.871389,71.5038476 C87.1237317,70.9050934 86.9975604,70.2433126 86.5559608,69.8021253 Z M16.6885959,80.6427263 L16.6885959,69.3294247 L5.36472047,69.3294247 L15.4584256,59.2451447 C18.8965939,63.4364236 23.281047,66.7768413 28.2332711,69.1088311 L16.6885959,80.6427263 Z M43.5,69.3609381 C25.2051595,69.3609381 10.3484874,54.5181385 10.3484874,36.2403811 C10.3484874,17.9626237 25.2051595,3.11982411 43.5,3.11982411 C61.7948405,3.11982411 76.6515126,17.9626237 76.6515126,36.2403811 C76.6515126,54.5181385 61.7948405,69.3609381 43.5,69.3609381 Z M70.3114041,69.3294247 L70.3114041,80.6427263 L58.7667289,69.1088311 C63.718953,66.7768413 68.1034061,63.4364236 71.5415744,59.2451447 L81.6352795,69.3294247 L70.3114041,69.3294247 Z M43.5,12.6053499 C30.441269,12.6053499 19.8428787,23.1938439 19.8428787,36.2403811 C19.8428787,49.2869183 30.441269,59.8754122 43.5,59.8754122 C56.558731,59.8754122 67.1571213,49.2869183 67.1571213,36.2403811 C67.1571213,23.1938439 56.558731,12.6053499 43.5,12.6053499 Z M43.5,56.7555881 C32.1761246,56.7555881 22.9656187,47.5536827 22.9656187,36.2403811 C22.9656187,24.9270795 32.1761246,15.7251741 43.5,15.7251741 C54.8238754,15.7251741 64.0343813,24.9270795 64.0343813,36.2403811 C64.0343813,47.5536827 54.8238754,56.7555881 43.5,56.7555881 Z M51.4487928,34.4756321 L45.9918834,36.2403811 L49.3669661,40.8413338 C49.8716513,41.5661414 49.7139372,42.5430561 49.019995,43.0472701 C48.2945099,43.5514841 47.3166822,43.3939172 46.811997,42.7006229 L43.4369143,38.0681568 L40.0933745,42.7006229 C39.5886893,43.3939172 38.5793188,43.5514841 37.8853765,43.0472701 C37.1914343,42.5430561 37.0337202,41.5661414 37.5384054,40.8413338 L40.9134881,36.2403811 L35.4565788,34.4756321 C34.6364652,34.1920117 34.1948656,33.3096372 34.4472083,32.4902895 C34.7310937,31.6394284 35.6142929,31.1982411 36.4344064,31.4818615 L41.8597729,33.2466105 L41.8597729,27.5111763 C41.8597729,26.6603151 42.585258,25.9355075 43.4369143,25.9355075 C44.3201135,25.9355075 45.0140558,26.6603151 45.0140558,27.5111763 L45.0140558,33.2466105 L50.4709651,31.4818615 C51.2910786,31.1982411 52.1742778,31.6394284 52.4581633,32.4902895 C52.7105059,33.3096372 52.2689063,34.1920117 51.4487928,34.4756321 Z" id="Shape" fill="#4D5152"></path>
            </g>
        </g>
    </g>
</svg>