<?xml version="1.0" encoding="UTF-8"?>
<svg width="295px" height="66px" viewBox="0 0 295 66" version="1.1" xmlns="http://www.w3.org/2000/svg" xmlns:xlink="http://www.w3.org/1999/xlink">
    <!-- Generator: Sketch 49.3 (51167) - http://www.bohemiancoding.com/sketch -->
    <title>logo</title>
    <desc>Created with Sketch.</desc>
    <defs></defs>
    <g id="Page-1" stroke="none" stroke-width="1" fill="none" fill-rule="evenodd">
        <g id="logo" transform="translate(-1.000000, 0.000000)" fill="#154F72" fill-rule="nonzero">
            <g id="Money">
                <g id="noun_Money_2328270" transform="translate(16.322413, 34.105638) rotate(-144.000000) translate(-16.322413, -34.105638) translate(2.322413, 25.605638)">
                    <g id="Group">
                        <path d="M27.7315538,1.55070846 C23.0824653,-0.467691161 18.4171007,0.545003268 13.906467,1.52427704 C9.33072916,2.51796793 5.00846356,3.45573777 0.620442711,1.55070846 C0.483289911,1.49107389 0.325303822,1.50527261 0.200303822,1.58784353 C0.0753038222,1.6706329 0,1.81109088 0,1.96159716 L0,15.0386059 C0,15.2172912 0.105468756,15.3787195 0.268446178,15.4494946 C2.23849827,16.3046935 4.21072049,16.6155359 6.17361111,16.6155359 C8.84266493,16.6153175 11.4941406,16.0401607 14.093533,15.475926 C18.6697048,14.4824519 22.9915364,13.544682 27.3795573,15.4494946 C27.5167101,15.5091292 27.6746962,15.4951489 27.7996962,15.4123595 C27.9246962,15.3295702 28,15.1891122 28,15.0386059 L28,1.96159716 C28,1.78291191 27.8945312,1.62148353 27.7315538,1.55070846 Z M27.1111111,14.3762893 C22.6675347,12.699313 18.2163628,13.6659171 13.90625,14.6012841 C9.42339409,15.5740063 5.18489582,16.493864 0.888888889,14.7408683 L0.888888889,2.62391211 C5.33268231,4.30088838 9.78363716,3.33472112 14.09375,2.39891724 C18.5766059,1.42619675 22.8151042,0.506339139 27.1111111,2.25933306 L27.1111111,14.3762893 Z" id="Shape"></path>
                        <path d="M13.8949653,3.24756292 C10.4980469,4.07873328 7.28927951,4.86337552 4.04296876,3.92429503 C3.9090712,3.88497555 3.76410591,3.91249918 3.65277778,3.99681766 C3.54123262,4.08135454 3.47569444,4.21373019 3.47569444,4.35418812 C3.47569444,4.66371987 3.3628472,4.91230644 3.16644964,5.0359444 C2.96332462,5.16373273 2.68294271,5.15084467 2.37695311,5.00077529 C2.23914929,4.93262149 2.07660587,4.94157763 1.94661458,5.02371165 C1.81684027,5.10540882 1.7378472,5.24870652 1.7378472,5.40292631 L1.7378472,11.5972751 C1.7378472,11.7683149 1.8348524,11.9245006 1.98763018,11.9994261 C2.85004338,12.4223291 3.47591142,13.2593973 3.4756944,13.9898661 C3.4756944,14.1893033 3.60698782,14.3647119 3.79730898,14.4197592 C4.92339404,14.7454556 6.04947911,14.8763039 7.17187493,14.8763039 C9.51128467,14.8763039 11.8344184,14.3081355 14.1050347,13.7526385 C17.501736,12.921905 20.7109375,12.1374812 23.9570312,13.0759064 C24.0907118,13.1154443 24.235894,13.0879207 24.3472222,13.0033837 C24.4587673,12.9188469 24.5243055,12.7864712 24.5243055,12.6460133 C24.5243055,12.3366999 24.6369357,12.0883319 24.8333333,11.9644755 C25.0368923,11.837124 25.3170572,11.8493567 25.6232639,11.9994261 C25.7606336,12.0673615 25.9231771,12.0581869 26.0533854,11.9764898 C26.1831597,11.8947926 26.2621528,11.7514949 26.2621528,11.5972751 L26.2621528,5.40292631 C26.2621528,5.23166809 26.1651476,5.07570078 26.0121528,5.00077529 C25.1501736,4.57830923 24.5243055,3.74124096 24.5243055,3.01055376 C24.5243055,2.81111656 24.3930121,2.63570796 24.2026909,2.58066066 C20.7296007,1.57604768 17.2549913,2.42600401 13.8949653,3.24756292 Z M25.3732639,5.67095417 L25.3732639,10.9976529 C25.0065104,10.9511248 24.6573351,11.0199339 24.3619792,11.2060462 C24.046658,11.4046096 23.8229167,11.7123938 23.7131077,12.0865843 C20.4027778,11.2914568 17.0970052,12.0996908 13.8949653,12.8832409 C10.6004775,13.6890719 7.48263893,14.4518701 4.33658858,13.640141 C4.19618058,12.7550156 3.54123267,11.8653029 2.62673613,11.3292472 L2.62673613,6.00254852 C2.99240453,6.04995034 3.34244796,5.98048592 3.63758684,5.79459208 C3.95312502,5.59602864 4.17686636,5.28802599 4.2868924,4.91361706 C7.59743929,5.70896295 10.9029948,4.9002921 14.1048177,4.11696051 C17.3993056,3.31134782 20.5164931,2.54876817 23.6634115,3.36027874 C23.8038195,4.24562263 24.4587674,5.13555376 25.3732639,5.67095417 Z" id="Shape"></path>
                        <path d="M14.2855903,8.05327838 C14.2788628,8.05305993 14.2719184,8.05284148 14.264974,8.05284148 L13.7304688,8.05284148 C13.4876302,8.05284148 13.2901476,7.86061287 13.2901476,7.62425905 L13.2901476,7.50258705 C13.2901476,7.26623323 13.4876302,7.07400461 13.7304688,7.07400461 L15.0792101,7.07400461 C15.3246528,7.07400461 15.5236545,6.87369366 15.5236545,6.62663619 C15.5236545,6.37957873 15.3246528,6.17926777 15.0792101,6.17926777 L14.4422743,6.17926777 L14.4422743,6.09123582 C14.4422743,5.84417836 14.2432726,5.6438674 13.9978299,5.6438674 C13.7523872,5.6438674 13.5533854,5.84417836 13.5533854,6.09123582 L13.5533854,6.19709809 C12.9047852,6.28433819 12.4012587,6.83336389 12.4012587,7.50258709 L12.4012587,7.62425909 C12.4012587,8.35385409 12.9976128,8.94757837 13.7304688,8.94757837 L14.249783,8.94757837 C14.4926215,8.94757837 14.6901042,9.13980699 14.6901042,9.37616081 L14.6901042,9.49783281 C14.6901042,9.73418662 14.4926216,9.92641524 14.249783,9.92641524 L12.9164496,9.92641524 C12.6710069,9.92641524 12.4720052,10.1267262 12.4720052,10.3737837 C12.4720052,10.6208411 12.6710069,10.8211521 12.9164496,10.8211521 L13.5533854,10.8211521 L13.5533854,10.9089656 C13.5533854,11.1560231 13.7523872,11.3563341 13.9978299,11.3563341 C14.2432726,11.3563341 14.4422743,11.1560231 14.4422743,10.9089656 L14.4422743,10.8017654 C15.083469,10.7079447 15.5789931,10.1618134 15.5789931,9.49783281 L15.5789931,9.37616076 C15.5789931,8.65836162 15.0019531,8.07228277 14.2855903,8.05327838 Z" id="Shape"></path>
                    </g>
                </g>
                <g id="noun_Money_2328270" transform="translate(27.250288, 19.466035) rotate(-100.000000) translate(-27.250288, -19.466035) translate(13.250288, 10.966035)">
                    <g id="Group">
                        <path d="M27.7315538,1.55070846 C23.0824653,-0.467691161 18.4171007,0.545003268 13.906467,1.52427704 C9.33072916,2.51796793 5.00846356,3.45573777 0.620442711,1.55070846 C0.483289911,1.49107389 0.325303822,1.50527261 0.200303822,1.58784353 C0.0753038222,1.6706329 0,1.81109088 0,1.96159716 L0,15.0386059 C0,15.2172912 0.105468756,15.3787195 0.268446178,15.4494946 C2.23849827,16.3046935 4.21072049,16.6155359 6.17361111,16.6155359 C8.84266493,16.6153175 11.4941406,16.0401607 14.093533,15.475926 C18.6697048,14.4824519 22.9915364,13.544682 27.3795573,15.4494946 C27.5167101,15.5091292 27.6746962,15.4951489 27.7996962,15.4123595 C27.9246962,15.3295702 28,15.1891122 28,15.0386059 L28,1.96159716 C28,1.78291191 27.8945312,1.62148353 27.7315538,1.55070846 Z M27.1111111,14.3762893 C22.6675347,12.699313 18.2163628,13.6659171 13.90625,14.6012841 C9.42339409,15.5740063 5.18489582,16.493864 0.888888889,14.7408683 L0.888888889,2.62391211 C5.33268231,4.30088838 9.78363716,3.33472112 14.09375,2.39891724 C18.5766059,1.42619675 22.8151042,0.506339139 27.1111111,2.25933306 L27.1111111,14.3762893 Z" id="Shape"></path>
                        <path d="M13.8949653,3.24756292 C10.4980469,4.07873328 7.28927951,4.86337552 4.04296876,3.92429503 C3.9090712,3.88497555 3.76410591,3.91249918 3.65277778,3.99681766 C3.54123262,4.08135454 3.47569444,4.21373019 3.47569444,4.35418812 C3.47569444,4.66371987 3.3628472,4.91230644 3.16644964,5.0359444 C2.96332462,5.16373273 2.68294271,5.15084467 2.37695311,5.00077529 C2.23914929,4.93262149 2.07660587,4.94157763 1.94661458,5.02371165 C1.81684027,5.10540882 1.7378472,5.24870652 1.7378472,5.40292631 L1.7378472,11.5972751 C1.7378472,11.7683149 1.8348524,11.9245006 1.98763018,11.9994261 C2.85004338,12.4223291 3.47591142,13.2593973 3.4756944,13.9898661 C3.4756944,14.1893033 3.60698782,14.3647119 3.79730898,14.4197592 C4.92339404,14.7454556 6.04947911,14.8763039 7.17187493,14.8763039 C9.51128467,14.8763039 11.8344184,14.3081355 14.1050347,13.7526385 C17.501736,12.921905 20.7109375,12.1374812 23.9570312,13.0759064 C24.0907118,13.1154443 24.235894,13.0879207 24.3472222,13.0033837 C24.4587673,12.9188469 24.5243055,12.7864712 24.5243055,12.6460133 C24.5243055,12.3366999 24.6369357,12.0883319 24.8333333,11.9644755 C25.0368923,11.837124 25.3170572,11.8493567 25.6232639,11.9994261 C25.7606336,12.0673615 25.9231771,12.0581869 26.0533854,11.9764898 C26.1831597,11.8947926 26.2621528,11.7514949 26.2621528,11.5972751 L26.2621528,5.40292631 C26.2621528,5.23166809 26.1651476,5.07570078 26.0121528,5.00077529 C25.1501736,4.57830923 24.5243055,3.74124096 24.5243055,3.01055376 C24.5243055,2.81111656 24.3930121,2.63570796 24.2026909,2.58066066 C20.7296007,1.57604768 17.2549913,2.42600401 13.8949653,3.24756292 Z M25.3732639,5.67095417 L25.3732639,10.9976529 C25.0065104,10.9511248 24.6573351,11.0199339 24.3619792,11.2060462 C24.046658,11.4046096 23.8229167,11.7123938 23.7131077,12.0865843 C20.4027778,11.2914568 17.0970052,12.0996908 13.8949653,12.8832409 C10.6004775,13.6890719 7.48263893,14.4518701 4.33658858,13.640141 C4.19618058,12.7550156 3.54123267,11.8653029 2.62673613,11.3292472 L2.62673613,6.00254852 C2.99240453,6.04995034 3.34244796,5.98048592 3.63758684,5.79459208 C3.95312502,5.59602864 4.17686636,5.28802599 4.2868924,4.91361706 C7.59743929,5.70896295 10.9029948,4.9002921 14.1048177,4.11696051 C17.3993056,3.31134782 20.5164931,2.54876817 23.6634115,3.36027874 C23.8038195,4.24562263 24.4587674,5.13555376 25.3732639,5.67095417 Z" id="Shape"></path>
                        <path d="M14.2855903,8.05327838 C14.2788628,8.05305993 14.2719184,8.05284148 14.264974,8.05284148 L13.7304688,8.05284148 C13.4876302,8.05284148 13.2901476,7.86061287 13.2901476,7.62425905 L13.2901476,7.50258705 C13.2901476,7.26623323 13.4876302,7.07400461 13.7304688,7.07400461 L15.0792101,7.07400461 C15.3246528,7.07400461 15.5236545,6.87369366 15.5236545,6.62663619 C15.5236545,6.37957873 15.3246528,6.17926777 15.0792101,6.17926777 L14.4422743,6.17926777 L14.4422743,6.09123582 C14.4422743,5.84417836 14.2432726,5.6438674 13.9978299,5.6438674 C13.7523872,5.6438674 13.5533854,5.84417836 13.5533854,6.09123582 L13.5533854,6.19709809 C12.9047852,6.28433819 12.4012587,6.83336389 12.4012587,7.50258709 L12.4012587,7.62425909 C12.4012587,8.35385409 12.9976128,8.94757837 13.7304688,8.94757837 L14.249783,8.94757837 C14.4926215,8.94757837 14.6901042,9.13980699 14.6901042,9.37616081 L14.6901042,9.49783281 C14.6901042,9.73418662 14.4926216,9.92641524 14.249783,9.92641524 L12.9164496,9.92641524 C12.6710069,9.92641524 12.4720052,10.1267262 12.4720052,10.3737837 C12.4720052,10.6208411 12.6710069,10.8211521 12.9164496,10.8211521 L13.5533854,10.8211521 L13.5533854,10.9089656 C13.5533854,11.1560231 13.7523872,11.3563341 13.9978299,11.3563341 C14.2432726,11.3563341 14.4422743,11.1560231 14.4422743,10.9089656 L14.4422743,10.8017654 C15.083469,10.7079447 15.5789931,10.1618134 15.5789931,9.49783281 L15.5789931,9.37616076 C15.5789931,8.65836162 15.0019531,8.07228277 14.2855903,8.05327838 Z" id="Shape"></path>
                    </g>
                </g>
                <g id="noun_Money_2328270" transform="translate(43.801940, 16.263318) rotate(-68.000000) translate(-43.801940, -16.263318) translate(29.801940, 7.763318)">
                    <g id="Group">
                        <path d="M27.7315538,1.55070846 C23.0824653,-0.467691161 18.4171007,0.545003268 13.906467,1.52427704 C9.33072916,2.51796793 5.00846356,3.45573777 0.620442711,1.55070846 C0.483289911,1.49107389 0.325303822,1.50527261 0.200303822,1.58784353 C0.0753038222,1.6706329 0,1.81109088 0,1.96159716 L0,15.0386059 C0,15.2172912 0.105468756,15.3787195 0.268446178,15.4494946 C2.23849827,16.3046935 4.21072049,16.6155359 6.17361111,16.6155359 C8.84266493,16.6153175 11.4941406,16.0401607 14.093533,15.475926 C18.6697048,14.4824519 22.9915364,13.544682 27.3795573,15.4494946 C27.5167101,15.5091292 27.6746962,15.4951489 27.7996962,15.4123595 C27.9246962,15.3295702 28,15.1891122 28,15.0386059 L28,1.96159716 C28,1.78291191 27.8945312,1.62148353 27.7315538,1.55070846 Z M27.1111111,14.3762893 C22.6675347,12.699313 18.2163628,13.6659171 13.90625,14.6012841 C9.42339409,15.5740063 5.18489582,16.493864 0.888888889,14.7408683 L0.888888889,2.62391211 C5.33268231,4.30088838 9.78363716,3.33472112 14.09375,2.39891724 C18.5766059,1.42619675 22.8151042,0.506339139 27.1111111,2.25933306 L27.1111111,14.3762893 Z" id="Shape"></path>
                        <path d="M13.8949653,3.24756292 C10.4980469,4.07873328 7.28927951,4.86337552 4.04296876,3.92429503 C3.9090712,3.88497555 3.76410591,3.91249918 3.65277778,3.99681766 C3.54123262,4.08135454 3.47569444,4.21373019 3.47569444,4.35418812 C3.47569444,4.66371987 3.3628472,4.91230644 3.16644964,5.0359444 C2.96332462,5.16373273 2.68294271,5.15084467 2.37695311,5.00077529 C2.23914929,4.93262149 2.07660587,4.94157763 1.94661458,5.02371165 C1.81684027,5.10540882 1.7378472,5.24870652 1.7378472,5.40292631 L1.7378472,11.5972751 C1.7378472,11.7683149 1.8348524,11.9245006 1.98763018,11.9994261 C2.85004338,12.4223291 3.47591142,13.2593973 3.4756944,13.9898661 C3.4756944,14.1893033 3.60698782,14.3647119 3.79730898,14.4197592 C4.92339404,14.7454556 6.04947911,14.8763039 7.17187493,14.8763039 C9.51128467,14.8763039 11.8344184,14.3081355 14.1050347,13.7526385 C17.501736,12.921905 20.7109375,12.1374812 23.9570312,13.0759064 C24.0907118,13.1154443 24.235894,13.0879207 24.3472222,13.0033837 C24.4587673,12.9188469 24.5243055,12.7864712 24.5243055,12.6460133 C24.5243055,12.3366999 24.6369357,12.0883319 24.8333333,11.9644755 C25.0368923,11.837124 25.3170572,11.8493567 25.6232639,11.9994261 C25.7606336,12.0673615 25.9231771,12.0581869 26.0533854,11.9764898 C26.1831597,11.8947926 26.2621528,11.7514949 26.2621528,11.5972751 L26.2621528,5.40292631 C26.2621528,5.23166809 26.1651476,5.07570078 26.0121528,5.00077529 C25.1501736,4.57830923 24.5243055,3.74124096 24.5243055,3.01055376 C24.5243055,2.81111656 24.3930121,2.63570796 24.2026909,2.58066066 C20.7296007,1.57604768 17.2549913,2.42600401 13.8949653,3.24756292 Z M25.3732639,5.67095417 L25.3732639,10.9976529 C25.0065104,10.9511248 24.6573351,11.0199339 24.3619792,11.2060462 C24.046658,11.4046096 23.8229167,11.7123938 23.7131077,12.0865843 C20.4027778,11.2914568 17.0970052,12.0996908 13.8949653,12.8832409 C10.6004775,13.6890719 7.48263893,14.4518701 4.33658858,13.640141 C4.19618058,12.7550156 3.54123267,11.8653029 2.62673613,11.3292472 L2.62673613,6.00254852 C2.99240453,6.04995034 3.34244796,5.98048592 3.63758684,5.79459208 C3.95312502,5.59602864 4.17686636,5.28802599 4.2868924,4.91361706 C7.59743929,5.70896295 10.9029948,4.9002921 14.1048177,4.11696051 C17.3993056,3.31134782 20.5164931,2.54876817 23.6634115,3.36027874 C23.8038195,4.24562263 24.4587674,5.13555376 25.3732639,5.67095417 Z" id="Shape"></path>
                        <path d="M14.2855903,8.05327838 C14.2788628,8.05305993 14.2719184,8.05284148 14.264974,8.05284148 L13.7304688,8.05284148 C13.4876302,8.05284148 13.2901476,7.86061287 13.2901476,7.62425905 L13.2901476,7.50258705 C13.2901476,7.26623323 13.4876302,7.07400461 13.7304688,7.07400461 L15.0792101,7.07400461 C15.3246528,7.07400461 15.5236545,6.87369366 15.5236545,6.62663619 C15.5236545,6.37957873 15.3246528,6.17926777 15.0792101,6.17926777 L14.4422743,6.17926777 L14.4422743,6.09123582 C14.4422743,5.84417836 14.2432726,5.6438674 13.9978299,5.6438674 C13.7523872,5.6438674 13.5533854,5.84417836 13.5533854,6.09123582 L13.5533854,6.19709809 C12.9047852,6.28433819 12.4012587,6.83336389 12.4012587,7.50258709 L12.4012587,7.62425909 C12.4012587,8.35385409 12.9976128,8.94757837 13.7304688,8.94757837 L14.249783,8.94757837 C14.4926215,8.94757837 14.6901042,9.13980699 14.6901042,9.37616081 L14.6901042,9.49783281 C14.6901042,9.73418662 14.4926216,9.92641524 14.249783,9.92641524 L12.9164496,9.92641524 C12.6710069,9.92641524 12.4720052,10.1267262 12.4720052,10.3737837 C12.4720052,10.6208411 12.6710069,10.8211521 12.9164496,10.8211521 L13.5533854,10.8211521 L13.5533854,10.9089656 C13.5533854,11.1560231 13.7523872,11.3563341 13.9978299,11.3563341 C14.2432726,11.3563341 14.4422743,11.1560231 14.4422743,10.9089656 L14.4422743,10.8017654 C15.083469,10.7079447 15.5789931,10.1618134 15.5789931,9.49783281 L15.5789931,9.37616076 C15.5789931,8.65836162 15.0019531,8.07228277 14.2855903,8.05327838 Z" id="Shape"></path>
                    </g>
                </g>
            </g>
            <g id="Title" transform="translate(95.502087, 26.182630)">
                <path d="M0.891802823,16.7846844 C2.34676297,9.2642461 7.01407081,2.36723772 15.4414043,2.36723772 C18.2946316,2.36723772 22.2060644,3.38759636 24.2278583,7.88484442 L20.0141915,10.4925308 C18.3324785,7.52591749 16.3295308,7.16679706 14.7990122,7.16679706 C10.8121176,7.16679706 7.18414993,11.0971921 6.03132693,17.0871118 C4.8975822,22.9259146 6.91941471,26.9128092 10.5474211,26.9128092 C12.6071392,26.9128092 15.1202083,26.1947812 17.8600494,23.0013763 L21.3935932,25.8923345 C17.7845877,30.4838903 13.5329966,31.6744442 10.1128389,31.6744442 C1.64758105,31.6744442 -0.506561031,23.9082715 0.891802823,16.7846844 Z M29.4431525,31.3720555 C24.6435931,31.3720555 24.4547453,28.5565591 25.0027135,25.8167179 L29.4243838,3.06597461 L34.5074083,1.30868382 L29.7268112,25.816331 C29.4811736,27.1012313 29.8968729,27.460255 30.7849781,27.460255 C31.2762726,27.460255 31.6541811,27.3279861 32.6934439,27.1957133 L32.5800694,30.6913327 C31.143994,31.1826272 30.3125412,31.3715718 29.4433769,31.3715718 L29.4431525,31.3720555 Z M46.4870845,14.328115 C43.4260473,14.328115 41.252943,17.5971557 40.6295131,20.8093099 C39.9681587,24.2671984 41.2530785,27.3471979 43.9362847,27.3471979 C46.8084741,27.3471979 49.0947709,24.3238915 49.7750874,20.8470408 C50.4742307,17.2380353 49.6239221,14.328115 46.487278,14.328115 L46.4870845,14.328115 Z M43.1425821,31.5799042 C36.3589598,31.5799042 34.8851342,25.6656397 35.8299537,20.8283495 C36.6613678,16.5012966 40.3270857,10.0955634 47.318518,10.0955634 C54.4987981,10.0955634 55.4248489,16.4823345 54.5744533,20.8093873 C53.6107683,25.7600636 49.8128183,31.5799042 43.1425821,31.5799042 Z M73.3381871,31.0886182 L69.1245204,31.0886182 L69.2756857,28.4432009 C67.1215436,30.597343 65.2320981,31.4854695 63.0400316,31.6555486 C57.579118,32.0523612 56.8423019,27.7063848 57.7304284,23.1146355 L60.2057665,10.4544795 L64.9863637,10.4544795 L62.5110256,23.1334042 C62.0575199,25.4763941 62.5299212,27.2149162 64.9296707,27.2149162 C66.9137336,27.2149162 68.7654483,25.4009323 70.0126952,23.5869485 L72.5447264,10.4544795 L77.3630545,10.4544795 L73.3381871,31.0886182 Z M96.1455872,31.1075138 L91.9319205,31.1075138 L92.2909441,28.3109796 C90.0613403,30.3894664 87.9259669,31.598789 85.2995118,31.598789 C79.139513,31.598789 77.9868835,25.9677962 78.87501,21.3762403 C79.8197908,16.5012192 83.1076389,10.0767174 89.9479543,10.0767174 C92.1775581,10.0767174 93.6703458,11.1159801 94.9553236,12.7977899 L96.8448852,3.06651639 L101.92791,1.29032147 L96.1455872,31.1075138 Z M92.8570038,23.6058441 L93.9907486,17.7293105 C93.4238762,15.8775377 91.8932995,14.592618 89.7770818,14.592618 C86.3002311,14.592618 84.5808647,17.8804274 83.9572412,21.0360821 C83.3903688,23.9649645 84.0328248,27.1393879 87.1316645,27.1393879 C89.4369236,27.1393879 91.5154104,25.6655236 92.8570812,23.6058441 L92.8570038,23.6058441 Z M129.893003,31.1075138 L125.055713,31.1075138 L127.49332,18.5607439 C127.96571,16.161061 127.455529,14.2714219 125.036944,14.4225389 C123.033919,14.5548078 121.257859,16.368871 120.199654,18.1071996 L117.705353,31.1075138 L112.868063,31.1075138 L115.30567,18.5607439 C115.759176,16.2365227 115.26788,14.2336911 112.962681,14.4225389 C110.676384,14.6114951 109.051248,16.5577188 107.898618,18.2962409 L105.42328,31.1075138 L100.604952,31.1075138 L104.610809,10.4542195 L108.692321,10.4542195 L108.522259,13.4964881 C110.506322,11.6825042 112.187958,10.3220647 114.455486,10.1142547 C116.647359,9.9064061 119.443893,10.662223 120.143172,13.9689946 C121.749307,12.3250705 123.846794,10.3220647 126.567673,10.1142547 C132.217435,9.6985574 133.275641,13.6665672 132.312052,18.5984748 L129.893003,31.1075138 Z M140.058399,31.1075138 L135.372226,31.1075138 L138.660035,14.3093463 L136.524855,14.3093463 L137.280691,10.4546065 L144.102045,10.4546065 L140.058399,31.1075138 Z M139.661548,4.08641066 C140.001667,2.27242683 141.853421,0.81736993 143.53525,0.81736993 C145.235867,0.81736993 146.501863,2.27233008 146.161705,4.08641066 C145.802681,5.90039449 143.95087,7.3364892 142.269234,7.3364892 C140.587598,7.3364892 139.302621,5.90041384 139.661548,4.08641066 Z M144.328892,26.8559227 L147.937897,24.6263189 C148.693733,26.1568762 150.092039,27.4228531 152.189488,27.4228531 C153.625564,27.4228531 155.70407,26.8181918 156.044228,25.1553249 C156.724467,21.9052464 146.086183,22.5476385 147.37116,15.9720197 C148.164785,11.8905077 151.320324,10.1144482 155.326181,10.1144482 C158.084984,10.1144482 161.164984,11.7772764 162.241958,14.4981941 L158.878493,16.5389501 C157.877019,15.1973567 156.440886,14.2147289 154.891599,14.2147289 C153.606698,14.2147289 152.095064,14.7060234 151.811599,16.0854058 C151.150245,19.2598291 161.958493,18.5984748 160.654746,25.3443662 C159.842236,29.5392643 156.025266,31.6177512 152.000447,31.6177512 C148.599252,31.6177512 145.746024,30.2194647 144.328892,26.8561162 L144.328892,26.8559227 Z M182.23339,22.0753255 L168.949804,22.0753255 C168.326239,25.4954832 169.478887,27.4983148 172.332037,27.4983148 C174.3161,27.4983148 176.130084,27.1204063 178.208571,24.6073567 L181.25084,26.7614988 C178.37865,30.4651216 175.695502,31.6365198 171.349487,31.6365198 C164.887254,31.6365198 163.451159,26.1189131 164.377017,21.4329334 C165.643032,14.9894693 169.762275,10.1521791 176.054622,10.1521791 C182.516855,10.1521791 183.575061,15.6508236 182.649203,20.5258447 C182.592516,20.8281753 182.516934,21.0171392 182.233506,22.0752868 L182.23339,22.0753255 Z M169.8002,18.7875161 L178.322151,18.7875161 C178.567788,16.217754 177.641911,14.3470772 174.996417,14.3470772 C172.540041,14.3470772 170.650402,16.368871 169.8002,18.7875161 Z M200.297918,10.9843865 L198.200469,15.1792846 C197.274573,14.8202609 196.651027,14.6313163 196.216406,14.6313163 C194.326844,14.6313163 192.966327,15.8784278 191.586925,18.0135497 L189.035932,31.1082877 L184.349759,31.1082877 L188.374578,10.4549935 L192.361472,10.4549935 L192.172516,13.2137968 C193.64638,11.6643547 195.044706,10.3228387 197.387696,10.0960665 C198.256899,10.0204829 199.485145,10.3606083 200.297616,10.9841543 L200.297918,10.9843865 Z" id="Shape"></path>
            </g>
            <g id="Cloud" transform="translate(5.392703, 19.998448)">
                <g id="Group">
                    <g id="Shape">
                        <path d="M57.49448,22.2075283 C56.528395,22.2075283 55.5949271,22.3411027 54.7049485,22.5834006 C54.4859485,22.2013155 54.193172,21.868156 53.8460338,21.6002305 C54.6987357,20.5494966 55.2112888,19.2145288 55.2112888,17.7553056 C55.2112888,14.3693487 52.4675765,11.6248598 49.0816196,11.6248598 C47.8569283,11.6248598 46.7184392,11.98753 45.7616734,12.6064767 C43.3285993,6.86588186 37.640813,2.83923358 31.013346,2.83923358 C22.1679219,2.83923358 14.9976146,10.0095409 14.9976146,18.854965 C14.9976146,20.7288902 15.3222315,22.5259325 15.9139974,24.1963897 C15.5684123,24.4573258 15.2678698,24.77573 15.0302316,25.1399533 C14.2124764,24.9015385 13.3496787,24.7710704 12.4550405,24.7710704 C7.30232859,24.7710704 3.12502077,28.9483782 3.12502077,34.1010902 C3.12502077,39.2553553 7.30232859,43.4318865 12.4550405,43.4318865 L57.4952566,43.4318865 C63.3562237,43.4318865 68.1082123,38.6822277 68.1082123,32.8197074 C68.1074357,26.9587403 63.3554471,22.2075283 57.49448,22.2075283 Z" stroke="#FFFFFF" stroke-width="3"></path>
                        <path d="M57.8425147,19.6508651 C57.7363052,19.6508651 57.6340005,19.6563015 57.5309147,19.6586313 C57.7292766,18.9557884 57.8425147,18.2187742 57.8425147,17.4538016 C57.8425147,12.937745 54.1595435,9.27674913 49.6190864,9.27674913 C49.0122865,9.27674913 48.4218865,9.34742174 47.8502294,9.47090462 C44.5319628,3.80855402 38.3647821,0 31.301068,0 C20.7269733,0 12.1552402,8.52575571 12.1552402,19.0396637 C12.1552402,20.0547085 12.2372402,21.0503378 12.3903069,22.0226685 C5.86623091,22.1197463 0.607297773,27.407765 0.607297773,33.9174102 C0.607297773,40.4891851 5.96463091,45.8168117 12.5730497,45.8168117 L57.8432957,45.8168117 C65.1092763,45.8168117 71,39.9595289 71,32.7322851 C70.999219,25.5089245 65.1084954,19.6508651 57.8425147,19.6508651 Z M57.8183052,44.6464424 L12.5269735,44.6464424 C6.62141184,44.6464424 1.83495487,39.8849732 1.83495487,34.014488 C1.83495487,28.1416728 6.62141184,23.3825335 12.5269735,23.3825335 C12.9822687,23.3825335 13.4274116,23.420588 13.8678688,23.4749515 C13.9537735,23.3576816 14.0521734,23.2489545 14.1607258,23.1503236 C13.8092973,21.7741495 13.6109354,20.335069 13.6109354,18.8486146 C13.6109354,9.19365058 21.4813732,1.36763124 31.1893919,1.36763124 C37.9977345,1.36763124 43.8993914,5.22122934 46.8185914,10.8525151 C47.6120389,10.5636117 48.4648389,10.3974146 49.3598103,10.3974146 C53.4434101,10.3974146 56.7515243,13.6887384 56.7515243,17.7481413 C56.7515243,18.7732823 56.5352005,19.7479429 56.1517529,20.6340685 C56.2829529,20.7598812 56.3930671,20.9058861 56.4875624,21.0627637 C56.9256766,21.01306 57.3676957,20.9788886 57.8190861,20.9788886 C64.3915812,20.9788886 69.7192382,26.2770035 69.7192382,32.8130538 C69.7192382,39.3491041 64.3908003,44.6464424 57.8183052,44.6464424 Z"></path>
                    </g>
                </g>
            </g>
        </g>
    </g>
</svg>