<?xml version="1.0" encoding="UTF-8"?>
<svg width="290px" height="46px" viewBox="0 0 290 46" version="1.1" xmlns="http://www.w3.org/2000/svg" xmlns:xlink="http://www.w3.org/1999/xlink">
    <!-- Generator: Sketch 49.3 (51167) - http://www.bohemiancoding.com/sketch -->
    <title>logo-white</title>
    <desc>Created with Sketch.</desc>
    <defs></defs>
    <g id="Page-1" stroke="none" stroke-width="1" fill="none" fill-rule="evenodd">
        <g id="logo-white" transform="translate(-1.000000, -1.000000)" fill="#FFFFFF" fill-rule="nonzero">
            <g id="SvgjsG1232" transform="translate(0.392703, 0.998448)">
                <g id="Group">
                    <g id="Shape">
                        <path d="M57.523214,19.6517521 C57.417597,19.6517521 57.315863,19.6571883 57.2133523,19.6595181 C57.4106076,18.956699 57.523214,18.2197098 57.523214,17.4547631 C57.523214,12.9388596 53.8607891,9.27798784 49.3456621,9.27798784 C48.7422474,9.27798784 48.1551411,9.34865805 47.5866731,9.47213675 C44.2869183,3.8099781 38.1541427,0.00155319124 31.1298353,0.00155319124 C20.6147307,0.00155319124 12.0908172,8.52701988 12.0908172,19.0405714 C12.0908172,20.0555818 12.1723597,21.0511774 12.3245725,22.0234751 C5.83689266,22.1205496 0.607297773,27.4083891 0.607297773,33.9178136 C0.607297773,40.4893657 5.93474371,45.8168117 12.5062958,45.8168117 L57.5239906,45.8168117 C64.7494362,45.8168117 70.607297,39.9597275 70.607297,32.7327287 C70.6065204,25.5096129 64.7486596,19.6517521 57.523214,19.6517521 Z M57.4991395,44.6464821 L12.4604767,44.6464821 C6.58786063,44.6464821 1.82810608,39.8851743 1.82810608,34.0148881 C1.82810608,28.142272 6.58786063,23.383294 12.4604767,23.383294 C12.9132319,23.383294 13.3558914,23.4213472 13.7938914,23.4757089 C13.8793169,23.358443 13.9771679,23.2497196 14.0851147,23.151092 C13.7356467,21.7749645 13.5383914,20.3359328 13.5383914,18.8495288 C13.5383914,9.19489211 21.364922,1.36913807 31.0187822,1.36913807 C37.7891428,1.36913807 43.6578758,5.22260553 46.5607903,10.8537004 C47.3498114,10.5648068 48.1978538,10.3986153 49.0878324,10.3986153 C53.1486509,10.3986153 56.4383099,13.6898275 56.4383099,17.7490928 C56.4383099,18.7741991 56.2231929,19.7488266 55.8418845,20.6349222 C55.9723526,20.7607306 56.0818525,20.9067306 56.1758206,21.0636029 C56.6114907,21.0139008 57.0510439,20.9797306 57.4999161,20.9797306 C64.0357449,20.9797306 69.3336802,26.2776659 69.3336802,32.8134946 C69.3336802,39.3493234 64.0349683,44.6464821 57.4991395,44.6464821 Z"></path>
                        <path d="M57.49448,22.2075283 C56.528395,22.2075283 55.5949271,22.3411027 54.7049485,22.5834006 C54.4859485,22.2013155 54.193172,21.868156 53.8460338,21.6002305 C54.6987357,20.5494966 55.2112888,19.2145288 55.2112888,17.7553056 C55.2112888,14.3693487 52.4675765,11.6248598 49.0816196,11.6248598 C47.8569283,11.6248598 46.7184392,11.98753 45.7616734,12.6064767 C43.3285993,6.86588186 37.640813,2.83923358 31.013346,2.83923358 C22.1679219,2.83923358 14.9976146,10.0095409 14.9976146,18.854965 C14.9976146,20.7288902 15.3222315,22.5259325 15.9139974,24.1963897 C15.5684123,24.4573258 15.2678698,24.77573 15.0302316,25.1399533 C14.2124764,24.9015385 13.3496787,24.7710704 12.4550405,24.7710704 C7.30232859,24.7710704 3.12502077,28.9483782 3.12502077,34.1010902 C3.12502077,39.2553553 7.30232859,43.4318865 12.4550405,43.4318865 L57.4952566,43.4318865 C63.3562237,43.4318865 68.1082123,38.6822277 68.1082123,32.8197074 C68.1074357,26.9587403 63.3554471,22.2075283 57.49448,22.2075283 Z"></path>
                    </g>
                </g>
            </g>
            <g id="SvgjsG1233" transform="translate(90.502087, 6.182630)">
                <path d="M0.891802823,17.7846844 C2.34676297,10.2642461 7.01407081,3.36723772 15.4414043,3.36723772 C18.2946316,3.36723772 22.2060644,4.38759636 24.2278583,8.88484442 L20.0141915,11.4925308 C18.3324785,8.52591749 16.3295308,8.16679706 14.7990122,8.16679706 C10.8121176,8.16679706 7.18414993,12.0971921 6.03132693,18.0871118 C4.8975822,23.9259146 6.91941471,27.9128092 10.5474211,27.9128092 C12.6071392,27.9128092 15.1202083,27.1947812 17.8600494,24.0013763 L21.3935932,26.8923345 C17.7845877,31.4838903 13.5329966,32.6744442 10.1128389,32.6744442 C1.64758105,32.6744442 -0.506561031,24.9082715 0.891802823,17.7846844 Z M29.4431525,32.3720555 C24.6435931,32.3720555 24.4547453,29.5565591 25.0027135,26.8167179 L29.4243838,4.06597461 L34.5074083,2.30868382 L29.7268112,26.816331 C29.4811736,28.1012313 29.8968729,28.460255 30.7849781,28.460255 C31.2762726,28.460255 31.6541811,28.3279861 32.6934439,28.1957133 L32.5800694,31.6913327 C31.143994,32.1826272 30.3125412,32.3715718 29.4433769,32.3715718 L29.4431525,32.3720555 Z M46.4870845,15.328115 C43.4260473,15.328115 41.252943,18.5971557 40.6295131,21.8093099 C39.9681587,25.2671984 41.2530785,28.3471979 43.9362847,28.3471979 C46.8084741,28.3471979 49.0947709,25.3238915 49.7750874,21.8470408 C50.4742307,18.2380353 49.6239221,15.328115 46.487278,15.328115 L46.4870845,15.328115 Z M43.1425821,32.5799042 C36.3589598,32.5799042 34.8851342,26.6656397 35.8299537,21.8283495 C36.6613678,17.5012966 40.3270857,11.0955634 47.318518,11.0955634 C54.4987981,11.0955634 55.4248489,17.4823345 54.5744533,21.8093873 C53.6107683,26.7600636 49.8128183,32.5799042 43.1425821,32.5799042 Z M73.3381871,32.0886182 L69.1245204,32.0886182 L69.2756857,29.4432009 C67.1215436,31.597343 65.2320981,32.4854695 63.0400316,32.6555486 C57.579118,33.0523612 56.8423019,28.7063848 57.7304284,24.1146355 L60.2057665,11.4544795 L64.9863637,11.4544795 L62.5110256,24.1334042 C62.0575199,26.4763941 62.5299212,28.2149162 64.9296707,28.2149162 C66.9137336,28.2149162 68.7654483,26.4009323 70.0126952,24.5869485 L72.5447264,11.4544795 L77.3630545,11.4544795 L73.3381871,32.0886182 Z M96.1455872,32.1075138 L91.9319205,32.1075138 L92.2909441,29.3109796 C90.0613403,31.3894664 87.9259669,32.598789 85.2995118,32.598789 C79.139513,32.598789 77.9868835,26.9677962 78.87501,22.3762403 C79.8197908,17.5012192 83.1076389,11.0767174 89.9479543,11.0767174 C92.1775581,11.0767174 93.6703458,12.1159801 94.9553236,13.7977899 L96.8448852,4.06651639 L101.92791,2.29032147 L96.1455872,32.1075138 Z M92.8570038,24.6058441 L93.9907486,18.7293105 C93.4238762,16.8775377 91.8932995,15.592618 89.7770818,15.592618 C86.3002311,15.592618 84.5808647,18.8804274 83.9572412,22.0360821 C83.3903688,24.9649645 84.0328248,28.1393879 87.1316645,28.1393879 C89.4369236,28.1393879 91.5154104,26.6655236 92.8570812,24.6058441 L92.8570038,24.6058441 Z M129.893003,32.1075138 L125.055713,32.1075138 L127.49332,19.5607439 C127.96571,17.161061 127.455529,15.2714219 125.036944,15.4225389 C123.033919,15.5548078 121.257859,17.368871 120.199654,19.1071996 L117.705353,32.1075138 L112.868063,32.1075138 L115.30567,19.5607439 C115.759176,17.2365227 115.26788,15.2336911 112.962681,15.4225389 C110.676384,15.6114951 109.051248,17.5577188 107.898618,19.2962409 L105.42328,32.1075138 L100.604952,32.1075138 L104.610809,11.4542195 L108.692321,11.4542195 L108.522259,14.4964881 C110.506322,12.6825042 112.187958,11.3220647 114.455486,11.1142547 C116.647359,10.9064061 119.443893,11.662223 120.143172,14.9689946 C121.749307,13.3250705 123.846794,11.3220647 126.567673,11.1142547 C132.217435,10.6985574 133.275641,14.6665672 132.312052,19.5984748 L129.893003,32.1075138 Z M140.058399,32.1075138 L135.372226,32.1075138 L138.660035,15.3093463 L136.524855,15.3093463 L137.280691,11.4546065 L144.102045,11.4546065 L140.058399,32.1075138 Z M139.661548,5.08641066 C140.001667,3.27242683 141.853421,1.81736993 143.53525,1.81736993 C145.235867,1.81736993 146.501863,3.27233008 146.161705,5.08641066 C145.802681,6.90039449 143.95087,8.3364892 142.269234,8.3364892 C140.587598,8.3364892 139.302621,6.90041384 139.661548,5.08641066 Z M144.328892,27.8559227 L147.937897,25.6263189 C148.693733,27.1568762 150.092039,28.4228531 152.189488,28.4228531 C153.625564,28.4228531 155.70407,27.8181918 156.044228,26.1553249 C156.724467,22.9052464 146.086183,23.5476385 147.37116,16.9720197 C148.164785,12.8905077 151.320324,11.1144482 155.326181,11.1144482 C158.084984,11.1144482 161.164984,12.7772764 162.241958,15.4981941 L158.878493,17.5389501 C157.877019,16.1973567 156.440886,15.2147289 154.891599,15.2147289 C153.606698,15.2147289 152.095064,15.7060234 151.811599,17.0854058 C151.150245,20.2598291 161.958493,19.5984748 160.654746,26.3443662 C159.842236,30.5392643 156.025266,32.6177512 152.000447,32.6177512 C148.599252,32.6177512 145.746024,31.2194647 144.328892,27.8561162 L144.328892,27.8559227 Z M182.23339,23.0753255 L168.949804,23.0753255 C168.326239,26.4954832 169.478887,28.4983148 172.332037,28.4983148 C174.3161,28.4983148 176.130084,28.1204063 178.208571,25.6073567 L181.25084,27.7614988 C178.37865,31.4651216 175.695502,32.6365198 171.349487,32.6365198 C164.887254,32.6365198 163.451159,27.1189131 164.377017,22.4329334 C165.643032,15.9894693 169.762275,11.1521791 176.054622,11.1521791 C182.516855,11.1521791 183.575061,16.6508236 182.649203,21.5258447 C182.592516,21.8281753 182.516934,22.0171392 182.233506,23.0752868 L182.23339,23.0753255 Z M169.8002,19.7875161 L178.322151,19.7875161 C178.567788,17.217754 177.641911,15.3470772 174.996417,15.3470772 C172.540041,15.3470772 170.650402,17.368871 169.8002,19.7875161 Z M200.297918,11.9843865 L198.200469,16.1792846 C197.274573,15.8202609 196.651027,15.6313163 196.216406,15.6313163 C194.326844,15.6313163 192.966327,16.8784278 191.586925,19.0135497 L189.035932,32.1082877 L184.349759,32.1082877 L188.374578,11.4549935 L192.361472,11.4549935 L192.172516,14.2137968 C193.64638,12.6643547 195.044706,11.3228387 197.387696,11.0960665 C198.256899,11.0204829 199.485145,11.3606083 200.297616,11.9841543 L200.297918,11.9843865 Z" id="Shape"></path>
            </g>
        </g>
    </g>
</svg>