<svg viewBox="0 0 300 66" preserveAspectRatio="xMidYMid meet" class="css-1y5supu" id="eaechhcf"><defs id="SvgjsDefs1230"></defs><g id="SvgjsG1231" featurekey="root" fill="#ffffff"></g><g id="SvgjsG1232" featurekey="symbol1" fill="#154f72" transform="matrix(0.7765956177175434,0,0,0.7765956177175434,5.509725198923994,-7.863251545545506)"><g><g><path d="M79.071,48.305c-0.136,0-0.267,0.007-0.399,0.01c0.254-0.905,0.399-1.854,0.399-2.839c0-5.815-4.716-10.529-10.53-10.529    c-0.777,0-1.533,0.091-2.265,0.25c-4.249-7.291-12.146-12.195-21.191-12.195c-13.54,0-24.516,10.978-24.516,24.516    c0,1.307,0.105,2.589,0.301,3.841c-8.354,0.125-15.088,6.934-15.088,15.316c0,8.462,6.86,15.322,15.322,15.322h57.968    c9.304,0,16.847-7.542,16.847-16.848C95.918,55.848,88.375,48.305,79.071,48.305z M79.04,80.49H21.045    c-7.562,0-13.691-6.131-13.691-13.69c0-7.562,6.129-13.69,13.691-13.69c0.583,0,1.153,0.049,1.717,0.119    c0.11-0.151,0.236-0.291,0.375-0.418c-0.45-1.772-0.704-3.625-0.704-5.539c0-12.432,10.078-22.509,22.509-22.509    c8.718,0,16.275,4.962,20.013,12.213c1.016-0.372,2.108-0.586,3.254-0.586c5.229,0,9.465,4.238,9.465,9.465    c0,1.32-0.277,2.575-0.768,3.716c0.168,0.162,0.309,0.35,0.43,0.552c0.561-0.064,1.127-0.108,1.705-0.108    c8.416,0,15.238,6.822,15.238,15.238S87.456,80.49,79.04,80.49z"></path><path d="M79.034,51.596c-1.244,0-2.446,0.172-3.592,0.484c-0.282-0.492-0.659-0.921-1.106-1.266    c1.098-1.353,1.758-3.072,1.758-4.951c0-4.36-3.533-7.894-7.893-7.894c-1.577,0-3.043,0.467-4.275,1.264    c-3.133-7.392-10.457-12.577-18.991-12.577c-11.39,0-20.623,9.233-20.623,20.623c0,2.413,0.418,4.727,1.18,6.878    c-0.445,0.336-0.832,0.746-1.138,1.215c-1.053-0.307-2.164-0.475-3.316-0.475c-6.635,0-12.014,5.379-12.014,12.014    c0,6.637,5.379,12.015,12.014,12.015h57.997c7.547,0,13.666-6.116,13.666-13.665C92.7,57.714,86.581,51.596,79.034,51.596z"></path></g></g></g><g id="SvgjsG1233" featurekey="text1" fill="#154f72" transform="matrix(1.9349160846554514,0,0,1.9349160846554514,95.63225506653978,1.6382174896614465)"><path d="M2.4609 16.19145 c0.75195 -3.8867 3.1641 -7.4512 7.5195 -7.4512 c1.4746 0 3.4961 0.52734 4.541 2.8516 l-2.1777 1.3477 c-0.86914 -1.5332 -1.9043 -1.7188 -2.6953 -1.7188 c-2.0605 0 -3.9355 2.0313 -4.5313 5.127 c-0.58594 3.0176 0.45898 5.0781 2.334 5.0781 c1.0645 0 2.3633 -0.37109 3.7793 -2.0215 l1.8262 1.4941 c-1.8652 2.373 -4.0625 2.9883 -5.8301 2.9883 c-4.375 0 -5.4883 -4.0137 -4.7656 -7.6953 z M17.216759375 23.73047 c-2.4805 0 -2.5781 -1.4551 -2.2949 -2.8711 l2.2852 -11.758 l2.627 -0.9082 l-2.4707 12.666 c-0.12695 0.66406 0.087891 0.84961 0.54688 0.84961 c0.25391 0 0.44922 -0.068359 0.98633 -0.13672 l-0.058594 1.8066 c-0.74219 0.25391 -1.1719 0.35156 -1.6211 0.35156 z M26.025375 14.92185 c-1.582 0 -2.7051 1.6895 -3.0273 3.3496 c-0.3418 1.7871 0.32227 3.3789 1.709 3.3789 c1.4844 0 2.666 -1.5625 3.0176 -3.3594 c0.36133 -1.8652 -0.078125 -3.3691 -1.6992 -3.3691 z M24.296875 23.83789 c-3.5059 0 -4.2676 -3.0566 -3.7793 -5.5566 c0.42969 -2.2363 2.3242 -5.5469 5.9375 -5.5469 c3.7109 0 4.1895 3.3008 3.75 5.5371 c-0.49805 2.5586 -2.4609 5.5664 -5.9082 5.5664 z M39.902515625 23.5839844 l-2.1777 0 l0.078125 -1.3672 c-1.1133 1.1133 -2.0898 1.5723 -3.2227 1.6602 c-2.8223 0.20508 -3.2031 -2.041 -2.7441 -4.4141 l1.2793 -6.543 l2.4707 0 l-1.2793 6.5527 c-0.23438 1.2109 0.0097656 2.1094 1.25 2.1094 c1.0254 0 1.9824 -0.9375 2.627 -1.875 l1.3086 -6.7871 l2.4902 0 z M51.689796875 23.59375 l-2.1777 0 l0.18555 -1.4453 c-1.1523 1.0742 -2.2559 1.6992 -3.6133 1.6992 c-3.1836 0 -3.7793 -2.9102 -3.3203 -5.2832 c0.48828 -2.5195 2.1875 -5.8398 5.7227 -5.8398 c1.1523 0 1.9238 0.53711 2.5879 1.4063 l0.97656 -5.0293 l2.627 -0.91797 z M49.990196875 19.71675 l0.58594 -3.0371 c-0.29297 -0.95703 -1.084 -1.6211 -2.1777 -1.6211 c-1.7969 0 -2.6855 1.6992 -3.0078 3.3301 c-0.29297 1.5137 0.039063 3.1543 1.6406 3.1543 c1.1914 0 2.2656 -0.76172 2.959 -1.8262 z M69.131078125 23.59375 l-2.5 0 l1.2598 -6.4844 c0.24414 -1.2402 -0.019531 -2.2168 -1.2695 -2.1387 c-1.0352 0.068359 -1.9531 1.0059 -2.5 1.9043 l-1.2891 6.7188 l-2.5 0 l1.2598 -6.4844 c0.23438 -1.2012 -0.019531 -2.2363 -1.2109 -2.1387 c-1.1816 0.097656 -2.0215 1.1035 -2.6172 2.002 l-1.2793 6.6211 l-2.4902 0 l2.0703 -10.674 l2.1094 0 l-0.087891 1.5723 c1.0254 -0.9375 1.8945 -1.6406 3.0664 -1.748 c1.1328 -0.10742 2.5781 0.2832 2.9395 1.9922 c0.83008 -0.84961 1.9141 -1.8848 3.3203 -1.9922 c2.9199 -0.21484 3.4668 1.8359 2.9688 4.3848 z M74.384740625 23.59375 l-2.4219 0 l1.6992 -8.6816 l-1.1035 0 l0.39063 -1.9922 l3.5254 0 z M74.179640625 9.62875 c0.17578 -0.9375 1.1328 -1.6895 2.002 -1.6895 c0.87891 0 1.5332 0.75195 1.3574 1.6895 c-0.18555 0.9375 -1.1426 1.6797 -2.0117 1.6797 s-1.5332 -0.74219 -1.3477 -1.6797 z M76.591809375 21.39645 l1.8652 -1.1523 c0.39063 0.79102 1.1133 1.4453 2.1973 1.4453 c0.74219 0 1.8164 -0.3125 1.9922 -1.1719 c0.35156 -1.6797 -5.1465 -1.3477 -4.4824 -4.7461 c0.41016 -2.1094 2.041 -3.0273 4.1113 -3.0273 c1.4258 0 3.0176 0.85938 3.5742 2.2656 l-1.7383 1.0547 c-0.51758 -0.69336 -1.2598 -1.2012 -2.0605 -1.2012 c-0.66406 0 -1.4453 0.25391 -1.5918 0.9668 c-0.3418 1.6406 5.2441 1.2988 4.5703 4.7852 c-0.41992 2.168 -2.3926 3.2422 -4.4727 3.2422 c-1.7578 0 -3.2324 -0.72266 -3.9648 -2.4609 z M96.181546875 18.92575 l-6.8652 0 c-0.32227 1.7676 0.27344 2.8027 1.748 2.8027 c1.0254 0 1.9629 -0.19531 3.0371 -1.4941 l1.5723 1.1133 c-1.4844 1.9141 -2.8711 2.5195 -5.1172 2.5195 c-3.3398 0 -4.082 -2.8516 -3.6035 -5.2734 c0.6543 -3.3301 2.7832 -5.8301 6.0352 -5.8301 c3.3398 0 3.8867 2.8418 3.4082 5.3613 c-0.029297 0.15625 -0.068359 0.25391 -0.21484 0.80078 z M89.755846875 17.22655 l4.4043 0 c0.12695 -1.3281 -0.35156 -2.2949 -1.7188 -2.2949 c-1.2695 0 -2.2461 1.0449 -2.6855 2.2949 z M105.517625 13.19375 l-1.084 2.168 c-0.47852 -0.18555 -0.80078 -0.2832 -1.0254 -0.2832 c-0.97656 0 -1.6797 0.64453 -2.3926 1.748 l-1.3184 6.7676 l-2.4219 0 l2.0801 -10.674 l2.0605 0 l-0.097656 1.4258 c0.76172 -0.80078 1.4844 -1.4941 2.6953 -1.6113 c0.44922 -0.039063 1.084 0.13672 1.5039 0.45898 z"></path></g></svg>